<svg xmlns="http://www.w3.org/2000/svg" width="48" height="48" viewBox="0 0 48 48"><defs><clipPath id="tb6ya"><path fill="#fff" d="M24 0c13.255 0 24 10.745 24 24S37.255 48 24 48 0 37.255 0 24 10.745 0 24 0z"/></clipPath></defs><g><g><path fill="#fff" d="M24 0c13.255 0 24 10.745 24 24S37.255 48 24 48 0 37.255 0 24 10.745 0 24 0z"/><path fill="none" stroke="#e98457" stroke-linecap="round" stroke-linejoin="round" stroke-miterlimit="50" stroke-width="12" d="M24 0c13.255 0 24 10.745 24 24S37.255 48 24 48 0 37.255 0 24 10.745 0 24 0z" clip-path="url(&quot;#tb6ya&quot;)"/></g></g></svg>