<svg xmlns="http://www.w3.org/2000/svg" width="117" height="117" viewBox="0 0 117 117"><defs><clipPath id="e1k4a"><path fill="#fff" d="M58.5 0C90.809 0 117 26.19 117 58.5c0 32.308-26.191 58.5-58.5 58.5S0 90.808 0 58.5C0 26.19 26.191 0 58.5 0z"/></clipPath></defs><g><g><path fill="#fff" d="M58.5 0C90.809 0 117 26.19 117 58.5c0 32.308-26.191 58.5-58.5 58.5S0 90.808 0 58.5C0 26.19 26.191 0 58.5 0z"/><path fill="none" stroke="#eaeaea" stroke-linecap="round" stroke-linejoin="round" stroke-miterlimit="50" stroke-width="24" d="M58.5 0C90.809 0 117 26.19 117 58.5c0 32.308-26.191 58.5-58.5 58.5S0 90.808 0 58.5C0 26.19 26.191 0 58.5 0z" clip-path="url(&quot;#e1k4a&quot;)"/></g></g></svg>